<svg width="24" height="24" viewBox="0 0 24 24" fill="none" xmlns="http://www.w3.org/2000/svg">
<path fill-rule="evenodd" clip-rule="evenodd" d="M5.52635 4.00001C5.52635 3.44772 5.97406 3 6.52635 3H8.31579C8.86807 3 9.31579 3.44772 9.31579 4V14.7303C10.2358 15.3435 10.8422 16.3904 10.8422 17.579C10.8422 19.4682 9.31047 21 7.42128 21C5.53177 21 4 19.4682 4 17.579C4 16.3904 4.60651 15.3435 5.52646 14.7303L5.52635 4.00001ZM6.63146 4.49252H8.21051V8.53637H6.63146V4.49252Z" fill="black"/>
<path d="M13.5 7.995L13.5 14L14.5 14L14.5 7.995L16 7.995L14 6L12 7.995L13.5 7.995Z" fill="black"/>
<path d="M18.5121 12.008L18.5 6.00303L17.5 6.00504L17.5121 12.01L16.0121 12.0131L18.0161 14.004L20.0121 12.005L18.5121 12.008Z" fill="black"/>
</svg>
