<svg width="24" height="24" viewBox="0 0 24 24" fill="none" xmlns="http://www.w3.org/2000/svg">
<path d="M17.087 4V5.5H21V4H17.087ZM8.47826 4.07031L7.81793 5.10156C7.81793 5.10156 6.63429 6.93244 5.44565 9.08594C4.85133 10.1627 4.2385 11.3234 3.78261 12.3906C3.32672 13.4579 3 14.4023 3 15.25C3 18.1408 5.46183 20.5 8.47826 20.5C11.4947 20.5 13.9565 18.1408 13.9565 15.25C13.9565 14.4023 13.6298 13.4579 13.1739 12.3906C12.718 11.3234 12.1052 10.1627 11.5109 9.08594C10.3222 6.93244 9.13859 5.10156 9.13859 5.10156L8.47826 4.07031ZM8.47826 7C8.88323 7.64435 9.31063 8.28411 10.1413 9.78906C10.5918 10.6053 11.0159 11.4413 11.3886 12.25H5.56793C5.94066 11.4413 6.36469 10.6053 6.81522 9.78906C7.64589 8.28411 8.07329 7.64435 8.47826 7ZM18.6522 7.75V9.25H21V7.75H18.6522ZM17.087 11.5V13H21V11.5H17.087ZM18.6522 15.25V16.75H21V15.25H18.6522ZM17.087 19V20.5H21V19H17.087Z" fill="black"/>
</svg>
