<svg width="24" height="24" viewBox="0 0 24 24" fill="none" xmlns="http://www.w3.org/2000/svg">
<path d="M12 3C9.61302 3 7.32382 3.94819 5.63596 5.63596C3.94819 7.32382 3 9.61306 3 12C3 14.3869 3.94819 16.6762 5.63596 18.364C7.32382 20.0518 9.61306 21 12 21C14.3869 21 16.6762 20.0518 18.364 18.364C20.0518 16.6762 21 14.3869 21 12C21 10.4202 20.5842 8.86824 19.7943 7.50005C19.0044 6.13186 17.8682 4.99575 16.5001 4.20585C15.1319 3.41595 13.5799 3.0001 12.0001 3.0001L12 3ZM15.7769 4.49998H8.22279C9.39397 3.90829 10.6877 3.60013 11.9997 3.60013C13.3116 3.60013 14.6055 3.9083 15.7765 4.49998H15.7769ZM7.21788 5.09998H16.7818C17.4999 5.59886 18.1365 6.20609 18.6687 6.89996H5.33099C5.8632 6.20609 6.49978 5.59886 7.21788 5.09998V5.09998ZM4.04704 14.6999H19.9469C19.7304 15.3317 19.4405 15.9359 19.0828 16.4998H4.91401C4.55429 15.9365 4.26314 15.3323 4.04711 14.6999H4.04704ZM3.86704 14.0999C3.71222 13.5115 3.62276 12.9079 3.59999 12.2999H20.3998C20.38 12.9075 20.2935 13.5111 20.1419 14.0999H3.86704ZM3.59999 11.6999C3.61981 11.0923 3.70633 10.4887 3.85793 9.89992H20.1328C20.2877 10.4883 20.3771 11.0919 20.3999 11.6999H3.59999ZM4.03792 9.29993C4.25407 8.66754 4.5451 8.06326 4.90496 7.49995H19.0888C19.4465 8.06391 19.7365 8.66805 19.9528 9.29993H4.03792ZM8.22278 19.4998H15.7769C14.6057 20.0915 13.3119 20.3997 12 20.3997C10.6881 20.3997 9.39417 20.0915 8.22313 19.4998H8.22278ZM16.7818 18.8998H7.21788C6.49977 18.4009 5.8632 17.7937 5.33099 17.0998H18.6687C18.1365 17.7937 17.4999 18.4009 16.7818 18.8998Z" fill="black" stroke="black" stroke-width="0.3"/>
</svg>
