<svg width="24" height="24" viewBox="0 0 24 24" fill="none" xmlns="http://www.w3.org/2000/svg">
<path d="M12 3C9.61302 3 7.32382 3.94819 5.63596 5.63596C3.94819 7.32382 3 9.61306 3 12C3 14.3869 3.94819 16.6762 5.63596 18.364C7.32382 20.0518 9.61306 21 12 21C14.3869 21 16.6762 20.0518 18.364 18.364C20.0518 16.6762 21 14.3869 21 12C21 9.61306 20.0518 7.32382 18.364 5.63596C16.6762 3.94819 14.3869 3 12 3V3ZM11.7 3.66294V20.3369C10.5 19.8509 9.30003 16.5659 9.30003 12.0001C9.30003 7.43433 10.5 4.14911 11.7 3.66328V3.66294ZM12.3 20.3366V3.66294C13.5 4.14897 14.7 7.43398 14.7 11.9998C14.7 16.5655 13.5 19.8508 12.3 20.3366ZM8.70004 11.9998C8.70004 15.2487 9.36606 18.5788 10.539 20.1175C8.10004 19.1666 6.29996 15.8997 6.29996 11.9998C6.29996 8.0998 8.09994 4.83276 10.539 3.88202C9.36606 5.42099 8.70004 8.75088 8.70004 11.9998ZM15.3 11.9998C15.3 8.75081 14.6339 5.42075 13.461 3.88202C15.9 4.83289 17.7 8.0998 17.7 11.9998C17.7 15.8997 15.9001 19.1668 13.461 20.1175C14.6339 18.5785 15.3 15.2486 15.3 11.9998V11.9998ZM3.6001 11.9998C3.60036 10.3285 4.09926 8.6951 5.03285 7.30884C5.96643 5.92269 7.29232 4.84647 8.84092 4.21781C6.96287 5.78088 5.69993 8.68176 5.69993 11.9999C5.69993 15.318 6.96287 18.2189 8.84092 19.782C7.29218 19.1533 5.9663 18.0771 5.03285 16.691C4.09926 15.3047 3.60037 13.6713 3.6001 12V11.9998ZM15.159 19.7818C17.0371 18.2188 18.3 15.3179 18.3 11.9998C18.3 8.68163 17.0371 5.78075 15.159 4.21768C16.7071 4.84674 18.0323 5.92324 18.9654 7.30953C19.8985 8.69568 20.3968 10.3287 20.3968 11.9998C20.3968 13.6709 19.8985 15.3037 18.9654 16.69C18.0325 18.0763 16.7073 19.1528 15.159 19.7818Z" fill="black"/>
</svg>
