<svg width="24" height="24" viewBox="0 0 24 24" fill="none" xmlns="http://www.w3.org/2000/svg">
<path d="M5.25 4V6.25C5.25 7.1225 5.48347 7.80459 5.67188 8.38281C5.86028 8.96103 6 9.43244 6 10C6 10.4339 5.74383 10.8714 5.36719 11.4531C4.99054 12.0349 4.5 12.7619 4.5 13.75C4.5 14.6101 4.73515 15.276 4.92188 15.8359C5.1086 16.3959 5.25 16.8532 5.25 17.5H3L6 20.5L9 17.5H6.75C6.75 16.6093 6.5164 15.9318 6.32812 15.3672C6.13985 14.8025 6 14.3539 6 13.75C6 13.2741 6.25946 12.8266 6.63281 12.25C7.00617 11.6734 7.5 10.9686 7.5 10C7.5 9.16506 7.26472 8.51015 7.07812 7.9375C6.89153 7.36485 6.75 6.8715 6.75 6.25V4H5.25ZM12 4V6.25C12 7.1225 12.2335 7.80459 12.4219 8.38281C12.6103 8.96103 12.75 9.43244 12.75 10C12.75 10.4339 12.4938 10.8714 12.1172 11.4531C11.7405 12.0349 11.25 12.7619 11.25 13.75C11.25 14.6101 11.4852 15.276 11.6719 15.8359C11.8586 16.3959 12 16.8532 12 17.5H9.75L12.75 20.5L15.75 17.5H13.5C13.5 16.6093 13.2664 15.9318 13.0781 15.3672C12.8898 14.8025 12.75 14.3539 12.75 13.75C12.75 13.2741 13.0095 12.8266 13.3828 12.25C13.7562 11.6734 14.25 10.9686 14.25 10C14.25 9.16506 14.0147 8.51015 13.8281 7.9375C13.6415 7.36485 13.5 6.8715 13.5 6.25V4H12ZM17.25 4V5.5H21V4H17.25ZM18.75 7.75V9.25H21V7.75H18.75ZM17.25 11.5V13H21V11.5H17.25ZM18.75 15.25V16.75H21V15.25H18.75ZM17.25 19V20.5H21V19H17.25Z" fill="black"/>
</svg>
