<svg width="24" height="24" viewBox="0 0 24 24" fill="none" xmlns="http://www.w3.org/2000/svg">
<path d="M11.5582 3.18361C11.6162 3.12541 11.6852 3.07923 11.7611 3.04772C11.837 3.01622 11.9184 3 12.0006 3C12.0828 3 12.1642 3.01622 12.2402 3.04772C12.3161 3.07923 12.385 3.12541 12.4431 3.18361L14.318 5.05849C14.3761 5.11659 14.4222 5.18558 14.4536 5.2615C14.4851 5.33742 14.5013 5.41879 14.5013 5.50096C14.5013 5.58314 14.4851 5.66451 14.4536 5.74043C14.4222 5.81634 14.3761 5.88533 14.318 5.94343C14.2599 6.00154 14.1909 6.04763 14.115 6.07908C14.0391 6.11053 13.9577 6.12671 13.8755 6.12671C13.7933 6.12671 13.712 6.11053 13.636 6.07908C13.5601 6.04763 13.4911 6.00154 13.433 5.94343L12.6256 5.13473V7.37584C12.6256 7.54159 12.5597 7.70056 12.4425 7.81776C12.3253 7.93496 12.1664 8.0008 12.0006 8.0008C11.8349 8.0008 11.6759 7.93496 11.5587 7.81776C11.4415 7.70056 11.3757 7.54159 11.3757 7.37584V5.13473L10.5682 5.94343C10.5101 6.00154 10.4411 6.04763 10.3652 6.07908C10.2893 6.11053 10.2079 6.12671 10.1257 6.12671C10.0436 6.12671 9.9622 6.11053 9.88628 6.07908C9.81036 6.04763 9.74138 6.00154 9.68327 5.94343C9.62516 5.88533 9.57907 5.81634 9.54762 5.74043C9.51618 5.66451 9.49999 5.58314 9.49999 5.50096C9.49999 5.41879 9.51618 5.33742 9.54762 5.2615C9.57907 5.18558 9.62516 5.11659 9.68327 5.05849L11.5582 3.18361ZM4.92982 7.17961C5.04701 7.06244 5.20595 6.99663 5.37166 6.99663C5.53738 6.99663 5.69631 7.06244 5.81351 7.17961L7.5809 8.947C7.69474 9.06486 7.75774 9.22273 7.75631 9.38659C7.75489 9.55046 7.68916 9.7072 7.57329 9.82308C7.45742 9.93895 7.30067 10.0047 7.13681 10.0061C6.97294 10.0075 6.81508 9.94453 6.69721 9.83069L4.92982 8.0633C4.81265 7.9461 4.74684 7.78717 4.74684 7.62145C4.74684 7.45574 4.81265 7.2968 4.92982 7.17961ZM19.0714 7.17961C19.1886 7.2968 19.2544 7.45574 19.2544 7.62145C19.2544 7.78717 19.1886 7.9461 19.0714 8.0633L17.304 9.83069C17.2464 9.89038 17.1774 9.93799 17.1012 9.97075C17.0249 10.0035 16.9429 10.0207 16.8599 10.0215C16.777 10.0222 16.6947 10.0064 16.6179 9.97495C16.5411 9.94352 16.4713 9.89712 16.4126 9.83844C16.3539 9.77976 16.3075 9.70998 16.2761 9.63317C16.2447 9.55637 16.2289 9.47407 16.2296 9.39109C16.2303 9.30811 16.2475 9.2261 16.2803 9.14986C16.313 9.07361 16.3607 9.00465 16.4204 8.947L18.1877 7.17961C18.3049 7.06244 18.4639 6.99663 18.6296 6.99663C18.7953 6.99663 18.9542 7.06244 19.0714 7.17961ZM12.0006 10.5006C12.6589 10.5004 13.3057 10.6736 13.8759 11.0026C14.4461 11.3316 14.9196 11.805 15.2489 12.375C15.5781 12.9451 15.7515 13.5918 15.7515 14.2501C15.7516 14.9084 15.5783 15.5552 15.2492 16.1253H8.75083C8.42162 15.5551 8.24835 14.9082 8.24845 14.2498C8.24856 13.5914 8.42203 12.9446 8.75143 12.3745C9.08082 11.8044 9.55453 11.3311 10.1249 11.0021C10.6953 10.6732 11.3422 10.5002 12.0006 10.5006ZM16.6378 16.1253C16.9443 15.3664 17.0598 14.5439 16.9741 13.7299C16.8884 12.916 16.6043 12.1355 16.1466 11.457C15.6888 10.7786 15.0715 10.2228 14.3489 9.83863C13.6262 9.45443 12.8203 9.25351 12.0019 9.25351C11.1834 9.25351 10.3775 9.45443 9.65486 9.83863C8.9322 10.2228 8.31492 10.7786 7.85719 11.457C7.39947 12.1355 7.1153 12.916 7.02965 13.7299C6.94399 14.5439 7.05946 15.3664 7.36591 16.1253H2.62496C2.45921 16.1253 2.30025 16.1911 2.18305 16.3083C2.06584 16.4255 2 16.5845 2 16.7503C2 16.916 2.06584 17.075 2.18305 17.1922C2.30025 17.3094 2.45921 17.3752 2.62496 17.3752H21.3738C21.5395 17.3752 21.6985 17.3094 21.8157 17.1922C21.9329 17.075 21.9988 16.916 21.9988 16.7503C21.9988 16.5845 21.9329 16.4255 21.8157 16.3083C21.6985 16.1911 21.5395 16.1253 21.3738 16.1253H16.6366H16.6378ZM2.00125 14.2504C2.00125 14.0847 2.06709 13.9257 2.1843 13.8085C2.3015 13.6913 2.46046 13.6255 2.62621 13.6255H5.12605C5.2918 13.6255 5.45077 13.6913 5.56797 13.8085C5.68517 13.9257 5.75102 14.0847 5.75102 14.2504C5.75102 14.4162 5.68517 14.5751 5.56797 14.6923C5.45077 14.8095 5.2918 14.8754 5.12605 14.8754H2.62621C2.46046 14.8754 2.3015 14.8095 2.1843 14.6923C2.06709 14.5751 2.00125 14.4162 2.00125 14.2504ZM18.2502 14.2504C18.2502 14.0847 18.3161 13.9257 18.4333 13.8085C18.5505 13.6913 18.7094 13.6255 18.8752 13.6255H21.375C21.5408 13.6255 21.6998 13.6913 21.817 13.8085C21.9342 13.9257 22 14.0847 22 14.2504C22 14.4162 21.9342 14.5751 21.817 14.6923C21.6998 14.8095 21.5408 14.8754 21.375 14.8754H18.8752C18.7094 14.8754 18.5505 14.8095 18.4333 14.6923C18.3161 14.5751 18.2502 14.4162 18.2502 14.2504Z" fill="black"/>
</svg>
