<svg width="24" height="24" viewBox="0 0 24 24" fill="none" xmlns="http://www.w3.org/2000/svg">
<path d="M11.5582 7.8172C11.6162 7.8754 11.6852 7.92158 11.7611 7.95308C11.837 7.98459 11.9184 8.0008 12.0006 8.0008C12.0828 8.0008 12.1642 7.98459 12.2402 7.95308C12.3161 7.92158 12.385 7.8754 12.4431 7.8172L14.318 5.94232C14.3761 5.88421 14.4222 5.81523 14.4536 5.73931C14.4851 5.66339 14.5013 5.58202 14.5013 5.49984C14.5013 5.41767 14.4851 5.3363 14.4536 5.26038C14.4222 5.18446 14.3761 5.11548 14.318 5.05737C14.2599 4.99927 14.1909 4.95317 14.115 4.92173C14.0391 4.89028 13.9577 4.87409 13.8755 4.87409C13.7933 4.87409 13.712 4.89028 13.636 4.92173C13.5601 4.95317 13.4911 4.99927 13.433 5.05737L12.6256 5.86607V3.62496C12.6256 3.45921 12.5597 3.30025 12.4425 3.18305C12.3253 3.06584 12.1664 3 12.0006 3C11.8349 3 11.6759 3.06584 11.5587 3.18305C11.4415 3.30025 11.3757 3.45921 11.3757 3.62496V5.86607L10.5682 5.05737C10.5101 4.99927 10.4411 4.95317 10.3652 4.92173C10.2893 4.89028 10.2079 4.87409 10.1257 4.87409C10.0436 4.87409 9.9622 4.89028 9.88628 4.92173C9.81036 4.95317 9.74138 4.99927 9.68327 5.05737C9.62516 5.11548 9.57907 5.18446 9.54762 5.26038C9.51618 5.3363 9.49999 5.41767 9.49999 5.49984C9.49999 5.58202 9.51618 5.66339 9.54762 5.73931C9.57907 5.81523 9.62516 5.88421 9.68327 5.94232L11.5582 7.8172V7.8172ZM4.92982 7.17974C5.04701 7.06258 5.20595 6.99676 5.37166 6.99676C5.53738 6.99676 5.69631 7.06258 5.81351 7.17974L7.5809 8.94588C7.69474 9.06375 7.75774 9.22161 7.75631 9.38548C7.75489 9.54934 7.68916 9.70609 7.57329 9.82196C7.45742 9.93783 7.30067 10.0036 7.1368 10.005C6.97294 10.0064 6.81508 9.94342 6.69721 9.82957L4.92982 8.06218C4.81265 7.94499 4.74684 7.78605 4.74684 7.62034C4.74684 7.45462 4.81265 7.29569 4.92982 7.17849V7.17974ZM19.0714 7.17974C19.1882 7.29688 19.2538 7.45555 19.2538 7.62096C19.2538 7.78637 19.1882 7.94504 19.0714 8.06218L17.304 9.82957C17.2464 9.88926 17.1774 9.93687 17.1012 9.96963C17.0249 10.0024 16.9429 10.0196 16.8599 10.0203C16.777 10.0211 16.6947 10.0053 16.6179 9.97383C16.5411 9.9424 16.4713 9.896 16.4126 9.83732C16.3539 9.77864 16.3075 9.70886 16.2761 9.63206C16.2447 9.55525 16.2289 9.47296 16.2296 9.38998C16.2303 9.30699 16.2475 9.22499 16.2803 9.14874C16.313 9.07249 16.3607 9.00353 16.4203 8.94588L18.1877 7.17849C18.3049 7.06133 18.4639 6.99551 18.6296 6.99551C18.7953 6.99551 18.9542 7.06133 19.0714 7.17849V7.17974ZM12.0006 10.4995C12.6589 10.4993 13.3057 10.6724 13.8759 11.0015C14.4461 11.3305 14.9196 11.8038 15.2489 12.3739C15.5781 12.944 15.7515 13.5907 15.7515 14.249C15.7516 14.9073 15.5783 15.5541 15.2492 16.1242H8.75083C8.42162 15.554 8.24835 14.9071 8.24845 14.2487C8.24856 13.5903 8.42203 12.9435 8.75143 12.3734C9.08082 11.8033 9.55453 11.3299 10.1249 11.001C10.6953 10.6721 11.3422 10.4991 12.0006 10.4995V10.4995ZM16.6378 16.1242C16.9443 15.3653 17.0598 14.5428 16.9741 13.7288C16.8884 12.9149 16.6043 12.1344 16.1466 11.4559C15.6888 10.7775 15.0715 10.2217 14.3489 9.83752C13.6262 9.45332 12.8203 9.2524 12.0019 9.2524C11.1834 9.2524 10.3775 9.45332 9.65486 9.83752C8.9322 10.2217 8.31492 10.7775 7.85719 11.4559C7.39947 12.1344 7.1153 12.9149 7.02965 13.7288C6.94399 14.5428 7.05946 15.3653 7.36591 16.1242H2.62496C2.45921 16.1242 2.30025 16.19 2.18305 16.3072C2.06584 16.4244 2 16.5834 2 16.7491C2 16.9149 2.06584 17.0739 2.18305 17.1911C2.30025 17.3083 2.45921 17.3741 2.62496 17.3741H21.3738C21.5395 17.3741 21.6985 17.3083 21.8157 17.1911C21.9329 17.0739 21.9988 16.9149 21.9988 16.7491C21.9988 16.5834 21.9329 16.4244 21.8157 16.3072C21.6985 16.19 21.5395 16.1242 21.3738 16.1242H16.6366H16.6378ZM2.00125 14.2493C2.00125 14.0835 2.06709 13.9246 2.1843 13.8074C2.3015 13.6902 2.46046 13.6243 2.62621 13.6243H5.12605C5.2918 13.6243 5.45077 13.6902 5.56797 13.8074C5.68517 13.9246 5.75102 14.0835 5.75102 14.2493C5.75102 14.415 5.68517 14.574 5.56797 14.6912C5.45077 14.8084 5.2918 14.8743 5.12605 14.8743H2.62621C2.46046 14.8743 2.3015 14.8084 2.1843 14.6912C2.06709 14.574 2.00125 14.415 2.00125 14.2493ZM18.2502 14.2493C18.2502 14.0835 18.3161 13.9246 18.4333 13.8074C18.5505 13.6902 18.7094 13.6243 18.8752 13.6243H21.375C21.5408 13.6243 21.6998 13.6902 21.817 13.8074C21.9342 13.9246 22 14.0835 22 14.2493C22 14.415 21.9342 14.574 21.817 14.6912C21.6998 14.8084 21.5408 14.8743 21.375 14.8743H18.8752C18.7094 14.8743 18.5505 14.8084 18.4333 14.6912C18.3161 14.574 18.2502 14.415 18.2502 14.2493Z" fill="black"/>
</svg>
