<svg width="24" height="24" viewBox="0 0 24 24" fill="none" xmlns="http://www.w3.org/2000/svg">
<path fill-rule="evenodd" clip-rule="evenodd" d="M7.52635 4.00001C7.52635 3.44772 7.97406 3 8.52635 3H10.3158C10.8681 3 11.3158 3.44772 11.3158 4V14.7303C12.2358 15.3435 12.8422 16.3904 12.8422 17.579C12.8422 19.4682 11.3105 21 9.42128 21C7.53177 21 6 19.4682 6 17.579C6 16.3904 6.60651 15.3435 7.52646 14.7303L7.52635 4.00001ZM8.63146 4.49252H10.2105V8.53637H8.63146V4.49252Z" fill="black"/>
<path d="M15.5 7.995L15.5 14L16.5 14L16.5 7.995L18 7.995L16 6L14 7.995L15.5 7.995Z" fill="black"/>
</svg>
