<svg width="20" height="15" viewBox="0 0 20 15" fill="none" xmlns="http://www.w3.org/2000/svg">
<path d="M9.55815 4.8172C9.61621 4.8754 9.68517 4.92158 9.7611 4.95308C9.83702 4.98459 9.91842 5.0008 10.0006 5.0008C10.0828 5.0008 10.1642 4.98459 10.2402 4.95308C10.3161 4.92158 10.385 4.8754 10.4431 4.8172L12.318 2.94232C12.3761 2.88421 12.4222 2.81523 12.4536 2.73931C12.4851 2.66339 12.5013 2.58202 12.5013 2.49984C12.5013 2.41767 12.4851 2.3363 12.4536 2.26038C12.4222 2.18446 12.3761 2.11548 12.318 2.05737C12.2599 1.99927 12.1909 1.95317 12.115 1.92173C12.0391 1.89028 11.9577 1.87409 11.8755 1.87409C11.7933 1.87409 11.712 1.89028 11.636 1.92173C11.5601 1.95317 11.4911 1.99927 11.433 2.05737L10.6256 2.86607V0.624961C10.6256 0.459211 10.5597 0.30025 10.4425 0.183047C10.3253 0.0658439 10.1664 0 10.0006 0C9.83488 0 9.67591 0.0658439 9.55871 0.183047C9.44151 0.30025 9.37566 0.459211 9.37566 0.624961V2.86607L8.56821 2.05737C8.51011 1.99927 8.44113 1.95317 8.36521 1.92173C8.28929 1.89028 8.20792 1.87409 8.12574 1.87409C8.04357 1.87409 7.9622 1.89028 7.88628 1.92173C7.81036 1.95317 7.74138 1.99927 7.68327 2.05737C7.62516 2.11548 7.57907 2.18446 7.54762 2.26038C7.51618 2.3363 7.49999 2.41767 7.49999 2.49984C7.49999 2.58202 7.51618 2.66339 7.54762 2.73931C7.57907 2.81523 7.62516 2.88421 7.68327 2.94232L9.55815 4.8172V4.8172ZM2.92982 4.17974C3.04701 4.06258 3.20595 3.99676 3.37166 3.99676C3.53738 3.99676 3.69631 4.06258 3.81351 4.17974L5.5809 5.94588C5.69474 6.06375 5.75774 6.22161 5.75631 6.38548C5.75489 6.54934 5.68916 6.70609 5.57329 6.82196C5.45742 6.93783 5.30067 7.00356 5.1368 7.00498C4.97294 7.00641 4.81508 6.94342 4.69721 6.82957L2.92982 5.06218C2.81265 4.94499 2.74684 4.78605 2.74684 4.62034C2.74684 4.45462 2.81265 4.29569 2.92982 4.17849V4.17974ZM17.0714 4.17974C17.1882 4.29688 17.2538 4.45555 17.2538 4.62096C17.2538 4.78637 17.1882 4.94504 17.0714 5.06218L15.304 6.82957C15.2464 6.88926 15.1774 6.93687 15.1012 6.96963C15.0249 7.00238 14.9429 7.01962 14.8599 7.02034C14.777 7.02106 14.6947 7.00525 14.6179 6.97383C14.5411 6.9424 14.4713 6.896 14.4126 6.83732C14.3539 6.77864 14.3075 6.70886 14.2761 6.63206C14.2447 6.55525 14.2289 6.47296 14.2296 6.38998C14.2303 6.30699 14.2475 6.22499 14.2803 6.14874C14.313 6.07249 14.3607 6.00353 14.4203 5.94588L16.1877 4.17849C16.3049 4.06133 16.4639 3.99551 16.6296 3.99551C16.7953 3.99551 16.9542 4.06133 17.0714 4.17849V4.17974ZM10.0006 7.49953C10.6589 7.49933 11.3057 7.67244 11.8759 8.00147C12.4461 8.3305 12.9196 8.80384 13.2489 9.37391C13.5781 9.94398 13.7515 10.5907 13.7515 11.249C13.7516 11.9073 13.5783 12.5541 13.2492 13.1242H6.75083C6.42162 12.554 6.24835 11.9071 6.24845 11.2487C6.24856 10.5903 6.42203 9.94348 6.75143 9.37337C7.08082 8.80327 7.55453 8.32994 8.1249 8.001C8.69527 7.67206 9.3422 7.49911 10.0006 7.49953V7.49953ZM14.6378 13.1242C14.9443 12.3653 15.0598 11.5428 14.9741 10.7288C14.8884 9.91487 14.6043 9.1344 14.1466 8.45593C13.6888 7.77745 13.0715 7.22172 12.3489 6.83752C11.6262 6.45332 10.8203 6.2524 10.0019 6.2524C9.18344 6.2524 8.37751 6.45332 7.65486 6.83752C6.9322 7.22172 6.31492 7.77745 5.85719 8.45593C5.39947 9.1344 5.1153 9.91487 5.02965 10.7288C4.94399 11.5428 5.05946 12.3653 5.36591 13.1242H0.624961C0.459211 13.1242 0.30025 13.19 0.183047 13.3072C0.0658439 13.4244 0 13.5834 0 13.7491C0 13.9149 0.0658439 14.0739 0.183047 14.1911C0.30025 14.3083 0.459211 14.3741 0.624961 14.3741H19.3738C19.5395 14.3741 19.6985 14.3083 19.8157 14.1911C19.9329 14.0739 19.9988 13.9149 19.9988 13.7491C19.9988 13.5834 19.9329 13.4244 19.8157 13.3072C19.6985 13.19 19.5395 13.1242 19.3738 13.1242H14.6366H14.6378ZM0.00124992 11.2493C0.00124992 11.0835 0.0670938 10.9246 0.184297 10.8074C0.3015 10.6902 0.460461 10.6243 0.626211 10.6243H3.12605C3.2918 10.6243 3.45077 10.6902 3.56797 10.8074C3.68517 10.9246 3.75102 11.0835 3.75102 11.2493C3.75102 11.415 3.68517 11.574 3.56797 11.6912C3.45077 11.8084 3.2918 11.8743 3.12605 11.8743H0.626211C0.460461 11.8743 0.3015 11.8084 0.184297 11.6912C0.0670938 11.574 0.00124992 11.415 0.00124992 11.2493ZM16.2502 11.2493C16.2502 11.0835 16.3161 10.9246 16.4333 10.8074C16.5505 10.6902 16.7094 10.6243 16.8752 10.6243H19.375C19.5408 10.6243 19.6998 10.6902 19.817 10.8074C19.9342 10.9246 20 11.0835 20 11.2493C20 11.415 19.9342 11.574 19.817 11.6912C19.6998 11.8084 19.5408 11.8743 19.375 11.8743H16.8752C16.7094 11.8743 16.5505 11.8084 16.4333 11.6912C16.3161 11.574 16.2502 11.415 16.2502 11.2493Z" fill="black"/>
</svg>
