<svg width="20" height="15" viewBox="0 0 20 15" fill="none" xmlns="http://www.w3.org/2000/svg">
<path d="M9.55815 0.183606C9.61621 0.125405 9.68517 0.0792297 9.7611 0.0477236C9.83702 0.0162175 9.91842 0 10.0006 0C10.0828 0 10.1642 0.0162175 10.2402 0.0477236C10.3161 0.0792297 10.385 0.125405 10.4431 0.183606L12.318 2.05849C12.3761 2.11659 12.4222 2.18558 12.4536 2.2615C12.4851 2.33742 12.5013 2.41879 12.5013 2.50096C12.5013 2.58314 12.4851 2.66451 12.4536 2.74043C12.4222 2.81634 12.3761 2.88533 12.318 2.94343C12.2599 3.00154 12.1909 3.04763 12.115 3.07908C12.0391 3.11053 11.9577 3.12671 11.8755 3.12671C11.7933 3.12671 11.712 3.11053 11.636 3.07908C11.5601 3.04763 11.4911 3.00154 11.433 2.94343L10.6256 2.13473V4.37584C10.6256 4.54159 10.5597 4.70056 10.4425 4.81776C10.3253 4.93496 10.1664 5.0008 10.0006 5.0008C9.83488 5.0008 9.67591 4.93496 9.55871 4.81776C9.44151 4.70056 9.37566 4.54159 9.37566 4.37584V2.13473L8.56821 2.94343C8.51011 3.00154 8.44113 3.04763 8.36521 3.07908C8.28929 3.11053 8.20792 3.12671 8.12574 3.12671C8.04357 3.12671 7.9622 3.11053 7.88628 3.07908C7.81036 3.04763 7.74138 3.00154 7.68327 2.94343C7.62516 2.88533 7.57907 2.81634 7.54762 2.74043C7.51618 2.66451 7.49999 2.58314 7.49999 2.50096C7.49999 2.41879 7.51618 2.33742 7.54762 2.2615C7.57907 2.18558 7.62516 2.11659 7.68327 2.05849L9.55815 0.183606ZM2.92982 4.17961C3.04701 4.06244 3.20595 3.99663 3.37166 3.99663C3.53738 3.99663 3.69631 4.06244 3.81351 4.17961L5.5809 5.947C5.69474 6.06486 5.75774 6.22273 5.75631 6.38659C5.75489 6.55046 5.68916 6.7072 5.57329 6.82308C5.45742 6.93895 5.30067 7.00468 5.13681 7.0061C4.97294 7.00752 4.81508 6.94453 4.69721 6.83069L2.92982 5.0633C2.81265 4.9461 2.74684 4.78717 2.74684 4.62145C2.74684 4.45574 2.81265 4.2968 2.92982 4.17961ZM17.0714 4.17961C17.1886 4.2968 17.2544 4.45574 17.2544 4.62145C17.2544 4.78717 17.1886 4.9461 17.0714 5.0633L15.304 6.83069C15.2464 6.89038 15.1774 6.93799 15.1012 6.97075C15.0249 7.0035 14.9429 7.02074 14.8599 7.02146C14.777 7.02218 14.6947 7.00637 14.6179 6.97495C14.5411 6.94352 14.4713 6.89712 14.4126 6.83844C14.3539 6.77976 14.3075 6.70998 14.2761 6.63317C14.2447 6.55637 14.2289 6.47407 14.2296 6.39109C14.2303 6.30811 14.2475 6.2261 14.2803 6.14986C14.313 6.07361 14.3607 6.00465 14.4204 5.947L16.1877 4.17961C16.3049 4.06244 16.4639 3.99663 16.6296 3.99663C16.7953 3.99663 16.9542 4.06244 17.0714 4.17961ZM10.0006 7.50065C10.6589 7.50045 11.3057 7.67356 11.8759 8.00259C12.4461 8.33162 12.9196 8.80496 13.2489 9.37503C13.5781 9.9451 13.7515 10.5918 13.7515 11.2501C13.7516 11.9084 13.5783 12.5552 13.2492 13.1253H6.75083C6.42162 12.5551 6.24835 11.9082 6.24845 11.2498C6.24856 10.5914 6.42203 9.9446 6.75143 9.37449C7.08082 8.80438 7.55453 8.33106 8.1249 8.00212C8.69527 7.67318 9.3422 7.50023 10.0006 7.50065ZM14.6378 13.1253C14.9443 12.3664 15.0598 11.5439 14.9741 10.7299C14.8884 9.91599 14.6043 9.13552 14.1466 8.45704C13.6888 7.77857 13.0715 7.22284 12.3489 6.83863C11.6262 6.45443 10.8203 6.25351 10.0019 6.25351C9.18344 6.25351 8.37751 6.45443 7.65486 6.83863C6.9322 7.22284 6.31492 7.77857 5.85719 8.45704C5.39947 9.13552 5.1153 9.91599 5.02965 10.7299C4.94399 11.5439 5.05946 12.3664 5.36591 13.1253H0.624961C0.459211 13.1253 0.30025 13.1911 0.183047 13.3083C0.0658439 13.4255 0 13.5845 0 13.7503C0 13.916 0.0658439 14.075 0.183047 14.1922C0.30025 14.3094 0.459211 14.3752 0.624961 14.3752H19.3738C19.5395 14.3752 19.6985 14.3094 19.8157 14.1922C19.9329 14.075 19.9988 13.916 19.9988 13.7503C19.9988 13.5845 19.9329 13.4255 19.8157 13.3083C19.6985 13.1911 19.5395 13.1253 19.3738 13.1253H14.6366H14.6378ZM0.00124992 11.2504C0.00124992 11.0847 0.0670938 10.9257 0.184297 10.8085C0.3015 10.6913 0.460461 10.6255 0.626211 10.6255H3.12605C3.2918 10.6255 3.45077 10.6913 3.56797 10.8085C3.68517 10.9257 3.75102 11.0847 3.75102 11.2504C3.75102 11.4162 3.68517 11.5751 3.56797 11.6923C3.45077 11.8095 3.2918 11.8754 3.12605 11.8754H0.626211C0.460461 11.8754 0.3015 11.8095 0.184297 11.6923C0.0670938 11.5751 0.00124992 11.4162 0.00124992 11.2504ZM16.2502 11.2504C16.2502 11.0847 16.3161 10.9257 16.4333 10.8085C16.5505 10.6913 16.7094 10.6255 16.8752 10.6255H19.375C19.5408 10.6255 19.6998 10.6913 19.817 10.8085C19.9342 10.9257 20 11.0847 20 11.2504C20 11.4162 19.9342 11.5751 19.817 11.6923C19.6998 11.8095 19.5408 11.8754 19.375 11.8754H16.8752C16.7094 11.8754 16.5505 11.8095 16.4333 11.6923C16.3161 11.5751 16.2502 11.4162 16.2502 11.2504Z" fill="black"/>
</svg>
