<svg width="24" height="24" viewBox="0 0 24 24" fill="none" xmlns="http://www.w3.org/2000/svg">
<path d="M12.0003 7C8.1863 7 4.84596 9.19124 3 12.4715C4.84596 15.7517 8.18614 17.9431 12.0003 17.9431C15.8144 17.9431 19.154 15.7518 21 12.4715C19.1538 9.19113 15.8141 7 12.0003 7V7ZM12.0003 16.3636C9.85039 16.3636 8.10812 14.6209 8.10812 12.4714C8.10812 10.3216 9.85039 8.57929 12.0003 8.57929C14.1499 8.57929 15.8924 10.3216 15.8924 12.4714C15.8924 14.6211 14.1499 16.3636 12.0003 16.3636ZM12.0003 10.2366C10.7661 10.2366 9.76532 11.2373 9.76532 12.4715C9.76532 13.7058 10.766 14.7065 12.0003 14.7065C13.2345 14.7065 14.235 13.7058 14.235 12.4715C14.235 11.2373 13.2345 10.2366 12.0003 10.2366V10.2366Z" fill="black"/>
</svg>
