<svg width="24" height="24" viewBox="0 0 24 24" fill="none" xmlns="http://www.w3.org/2000/svg">
<path fill-rule="evenodd" clip-rule="evenodd" d="M17.6168 17.1339L17.6056 17.1227L17.6058 17.1226C19.5326 16.9876 21.0493 15.3587 20.9988 13.387C20.9481 11.5782 19.5045 10.0277 17.7069 9.85358C17.102 9.78883 16.7392 9.87779 16.5178 9.93206C16.3339 9.97718 16.2476 9.99832 16.2014 9.88729C15.5554 8.19651 13.9263 7 12.0108 7C9.65688 7 7.73015 8.80895 7.5391 11.1122C7.52778 11.2077 7.43238 11.2638 7.34246 11.2245C6.77517 10.9716 6.11784 10.8818 5.42692 11.0278C4.26411 11.2694 3.32032 12.2018 3.07319 13.3647C2.65754 15.3025 4.06748 17.0216 5.90441 17.1283V17.1339H17.6168ZM9 13.125H13.5038V12L15 13.5L13.5038 15V13.875H9V13.125Z" fill="black"/>
</svg>
